ffmpeg version 2025-05-01-git-707c04fe06-full_build-www.gyan.dev Copyright (c) 2000-2025 the FFmpeg developers
  built with gcc 15.1.0 (Rev1, Built by MSYS2 project)
  configuration: --enable-gpl --enable-version3 --enable-static --disable-w32threads --disable-autodetect --enable-fontconfig --enable-iconv --enable-gnutls --enable-lcms2 --enable-libxml2 --enable-gmp --enable-bzlib --enable-lzma --enable-libsnappy --enable-zlib --enable-librist --enable-libsrt --enable-libssh --enable-libzmq --enable-avisynth --enable-libbluray --enable-libcaca --enable-libdvdnav --enable-libdvdread --enable-sdl2 --enable-libaribb24 --enable-libaribcaption --enable-libdav1d --enable-libdavs2 --enable-libopenjpeg --enable-libquirc --enable-libuavs3d --enable-libxevd --enable-libzvbi --enable-libqrencode --enable-librav1e --enable-libsvtav1 --enable-libvvenc --enable-libwebp --enable-libx264 --enable-libx265 --enable-libxavs2 --enable-libxeve --enable-libxvid --enable-libaom --enable-libjxl --enable-libvpx --enable-mediafoundation --enable-libass --enable-frei0r --enable-libfreetype --enable-libfribidi --enable-libharfbuzz --enable-liblensfun --enable-libvidstab --enable-libvmaf --enable-libzimg --enable-amf --enable-cuda-llvm --enable-cuvid --enable-dxva2 --enable-d3d11va --enable-d3d12va --enable-ffnvcodec --enable-libvpl --enable-nvdec --enable-nvenc --enable-vaapi --enable-libshaderc --enable-vulkan --enable-libplacebo --enable-opencl --enable-libcdio --enable-libgme --enable-libmodplug --enable-libopenmpt --enable-libopencore-amrwb --enable-libmp3lame --enable-libshine --enable-libtheora --enable-libtwolame --enable-libvo-amrwbenc --enable-libcodec2 --enable-libilbc --enable-libgsm --enable-liblc3 --enable-libopencore-amrnb --enable-libopus --enable-libspeex --enable-libvorbis --enable-ladspa --enable-libbs2b --enable-libflite --enable-libmysofa --enable-librubberband --enable-libsoxr --enable-chromaprint
  libavutil      60.  2.100 / 60.  2.100
  libavcodec     62.  1.102 / 62.  1.102
  libavformat    62.  0.102 / 62.  0.102
  libavdevice    62.  0.100 / 62.  0.100
  libavfilter    11.  0.100 / 11.  0.100
  libswscale      9.  0.100 /  9.  0.100
  libswresample   6.  0.100 /  6.  0.100
  libpostproc    59.  1.100 / 59.  1.100
Input #0, mov,mp4,m4a,3gp,3g2,mj2, from 'canais/sinais-do-fim/videos/video-015-economist-manipulacao/6-assets/veo3/antichrist_avatar_10s.mp4':
  Metadata:
    major_brand     : isom
    minor_version   : 512
    compatible_brands: isomiso2avc1mp41
    encoder         : Lavf62.0.102
  Duration: 00:00:10.00, start: 0.000000, bitrate: 7328 kb/s
  Stream #0:0[0x1](und): Video: h264 (Constrained Baseline) (avc1 / 0x31637661), yuv420p(progressive), 1920x1080, 7327 kb/s, 24 fps, 24 tbr, 12288 tbn (default)
    Metadata:
      handler_name    : VideoHandler
      vendor_id       : [0][0][0][0]
      encoder         : Lavc62.1.102 libx264
Stream mapping:
  Stream #0:0 -> #0:0 (h264 (native) -> h264 (libx264))
Press [q] to stop, [?] for help
[libx264 @ 0000025ff7660180] using cpu capabilities: MMX2 SSE2Fast SSSE3 SSE4.2 AVX FMA3 BMI2 AVX2
[libx264 @ 0000025ff7660180] profile High, level 5.0, 4:2:0, 8-bit
[libx264 @ 0000025ff7660180] 264 - core 165 r3215 32c3b80 - H.264/MPEG-4 AVC codec - Copyleft 2003-2025 - http://www.videolan.org/x264.html - options: cabac=1 ref=5 deblock=1:0:0 analyse=0x3:0x113 me=hex subme=8 psy=1 psy_rd=1.00:0.00 mixed_ref=1 me_range=16 chroma_me=1 trellis=2 8x8dct=1 cqm=0 deadzone=21,11 fast_pskip=1 chroma_qp_offset=-2 threads=24 lookahead_threads=4 sliced_threads=0 nr=0 decimate=1 interlaced=0 bluray_compat=0 constrained_intra=0 bframes=3 b_pyramid=2 b_adapt=1 b_bias=0 direct=3 weightb=1 open_gop=0 weightp=2 keyint=250 keyint_min=25 scenecut=40 intra_refresh=0 rc_lookahead=50 rc=crf mbtree=1 crf=18.0 qcomp=0.60 qpmin=0 qpmax=69 qpstep=4 ip_ratio=1.40 aq=1:1.00
Output #0, mp4, to 'canais/sinais-do-fim/videos/video-015-economist-manipulacao/6-assets/veo3/antichrist_avatar_20s.mp4':
  Metadata:
    major_brand     : isom
    minor_version   : 512
    compatible_brands: isomiso2avc1mp41
    encoder         : Lavf62.0.102
  Stream #0:0(und): Video: h264 (avc1 / 0x31637661), yuv420p(tv, progressive), 1920x1080, q=2-31, 30 fps, 15360 tbn (default)
    Metadata:
      encoder         : Lavc62.1.102 libx264
      handler_name    : VideoHandler
      vendor_id       : [0][0][0][0]
    Side data:
      cpb: bitrate max/min/avg: 0/0/0 buffer size: 0 vbv_delay: N/A
frame=    0 fps=0.0 q=0.0 size=       0KiB time=N/A bitrate=N/A speed=N/A    frame=    0 fps=0.0 q=0.0 size=       0KiB time=N/A bitrate=N/A speed=N/A    frame=    0 fps=0.0 q=0.0 size=       0KiB time=N/A bitrate=N/A speed=N/A    frame=    0 fps=0.0 q=0.0 size=       0KiB time=N/A bitrate=N/A speed=N/A    frame=    0 fps=0.0 q=0.0 size=       0KiB time=N/A bitrate=N/A speed=N/A    frame=    0 fps=0.0 q=0.0 size=       0KiB time=N/A bitrate=N/A speed=N/A    frame=    0 fps=0.0 q=0.0 size=       0KiB time=N/A bitrate=N/A speed=N/A    frame=    0 fps=0.0 q=0.0 size=       0KiB time=N/A bitrate=N/A speed=N/A    frame=    0 fps=0.0 q=0.0 size=       0KiB time=N/A bitrate=N/A speed=N/A    frame=    0 fps=0.0 q=0.0 size=       0KiB time=N/A bitrate=N/A speed=N/A    frame=    0 fps=0.0 q=0.0 size=       0KiB time=N/A bitrate=N/A speed=N/A    frame=    0 fps=0.0 q=0.0 size=       0KiB time=N/A bitrate=N/A speed=N/A    frame=    0 fps=0.0 q=0.0 size=       0KiB time=N/A bitrate=N/A speed=N/A    frame=    0 fps=0.0 q=0.0 size=       0KiB time=N/A bitrate=N/A speed=N/A    frame=    0 fps=0.0 q=0.0 size=       0KiB time=N/A bitrate=N/A speed=N/A    frame=    0 fps=0.0 q=0.0 size=       0KiB time=N/A bitrate=N/A speed=N/A    frame=    0 fps=0.0 q=0.0 size=       0KiB time=N/A bitrate=N/A speed=N/A    frame=    0 fps=0.0 q=0.0 size=       0KiB time=N/A bitrate=N/A speed=N/A    frame=    0 fps=0.0 q=0.0 size=       0KiB time=N/A bitrate=N/A speed=N/A    frame=    0 fps=0.0 q=0.0 size=       0KiB time=N/A bitrate=N/A speed=N/A    frame=    0 fps=0.0 q=0.0 size=       0KiB time=N/A bitrate=N/A speed=N/A    frame=    0 fps=0.0 q=0.0 size=       0KiB time=N/A bitrate=N/A speed=N/A    frame=    0 fps=0.0 q=0.0 size=       0KiB time=N/A bitrate=N/A speed=N/A    frame=    0 fps=0.0 q=0.0 size=       0KiB time=N/A bitrate=N/A speed=N/A    frame=    0 fps=0.0 q=0.0 size=       0KiB time=N/A bitrate=N/A speed=N/A    frame=    0 fps=0.0 q=0.0 size=       0KiB time=N/A bitrate=N/A speed=N/A    frame=    0 fps=0.0 q=0.0 size=       0KiB time=N/A bitrate=N/A speed=N/A    frame=    0 fps=0.0 q=0.0 size=       0KiB time=N/A bitrate=N/A speed=N/A    frame=    0 fps=0.0 q=0.0 size=       0KiB time=N/A bitrate=N/A speed=N/A    frame=    0 fps=0.0 q=0.0 size=       0KiB time=N/A bitrate=N/A speed=N/A    frame=    0 fps=0.0 q=0.0 size=       0KiB time=N/A bitrate=N/A speed=N/A    frame=    0 fps=0.0 q=0.0 size=       0KiB time=N/A bitrate=N/A speed=N/A    frame=    0 fps=0.0 q=0.0 size=       0KiB time=N/A bitrate=N/A speed=N/A    frame=    0 fps=0.0 q=0.0 size=       0KiB time=N/A bitrate=N/A speed=N/A    frame=    0 fps=0.0 q=0.0 size=       0KiB time=N/A bitrate=N/A speed=N/A    frame=    0 fps=0.0 q=0.0 size=       0KiB time=N/A bitrate=N/A speed=N/A    frame=    0 fps=0.0 q=0.0 size=       0KiB time=N/A bitrate=N/A speed=N/A    frame=    0 fps=0.0 q=0.0 size=       0KiB time=N/A bitrate=N/A speed=N/A    frame=    0 fps=0.0 q=0.0 size=       0KiB time=N/A bitrate=N/A speed=N/A    frame=    0 fps=0.0 q=0.0 size=       0KiB time=N/A bitrate=N/A speed=N/A    frame=    0 fps=0.0 q=0.0 size=       0KiB time=N/A bitrate=N/A speed=N/A    frame=    0 fps=0.0 q=0.0 size=       0KiB time=N/A bitrate=N/A speed=N/A    frame=    0 fps=0.0 q=0.0 size=       0KiB time=N/A bitrate=N/A speed=N/A    frame=    0 fps=0.0 q=0.0 size=       0KiB time=N/A bitrate=N/A speed=N/A    frame=    0 fps=0.0 q=0.0 size=       0KiB time=N/A bitrate=N/A speed=N/A    frame=    0 fps=0.0 q=0.0 size=       0KiB time=N/A bitrate=N/A speed=N/A    frame=    0 fps=0.0 q=0.0 size=       0KiB time=N/A bitrate=N/A speed=N/A    frame=    0 fps=0.0 q=0.0 size=       0KiB time=N/A bitrate=N/A speed=N/A    frame=    0 fps=0.0 q=0.0 size=       0KiB time=N/A bitrate=N/A speed=N/A    frame=    0 fps=0.0 q=0.0 size=       0KiB time=N/A bitrate=N/A speed=N/A    frame=    0 fps=0.0 q=0.0 size=       0KiB time=N/A bitrate=N/A speed=N/A    frame=    0 fps=0.0 q=0.0 size=       0KiB time=N/A bitrate=N/A speed=N/A    frame=    0 fps=0.0 q=0.0 size=       0KiB time=N/A bitrate=N/A speed=N/A    frame=    0 fps=0.0 q=0.0 size=       0KiB time=N/A bitrate=N/A speed=N/A    frame=    0 fps=0.0 q=0.0 size=       0KiB time=N/A bitrate=N/A speed=N/A    frame=    0 fps=0.0 q=0.0 size=       0KiB time=N/A bitrate=N/A speed=N/A    frame=    0 fps=0.0 q=0.0 size=       0KiB time=N/A bitrate=N/A speed=N/A    frame=    0 fps=0.0 q=0.0 size=       0KiB time=N/A bitrate=N/A speed=N/A    frame=    0 fps=0.0 q=0.0 size=       0KiB time=N/A bitrate=N/A speed=N/A    frame=    0 fps=0.0 q=0.0 size=       0KiB time=N/A bitrate=N/A speed=N/A    frame=    0 fps=0.0 q=0.0 size=       0KiB time=N/A bitrate=N/A speed=N/A    frame=    0 fps=0.0 q=0.0 size=       0KiB time=N/A bitrate=N/A speed=N/A    frame=    0 fps=0.0 q=0.0 size=       0KiB time=N/A bitrate=N/A speed=N/A    frame=    0 fps=0.0 q=0.0 size=       0KiB time=N/A bitrate=N/A speed=N/A    frame=    0 fps=0.0 q=0.0 size=       0KiB time=N/A bitrate=N/A speed=N/A    frame=    0 fps=0.0 q=0.0 size=       0KiB time=N/A bitrate=N/A speed=N/A    frame=    2 fps=0.1 q=24.0 size=       0KiB time=00:00:00.00 bitrate=N/A speed=   0x    frame=    2 fps=0.1 q=24.0 size=       0KiB time=00:00:00.00 bitrate=N/A speed=   0x    frame=    4 fps=0.1 q=24.0 size=       0KiB time=00:00:00.06 bitrate=   5.8kbits/s speed=0.00182x    frame=    4 fps=0.1 q=24.0 size=       0KiB time=00:00:00.06 bitrate=   5.8kbits/s speed=0.00179x    frame=    7 fps=0.2 q=24.0 size=       0KiB time=00:00:00.16 bitrate=   2.3kbits/s speed=0.00443x    frame=    7 fps=0.2 q=24.0 size=       0KiB time=00:00:00.16 bitrate=   2.3kbits/s speed=0.00436x    frame=    9 fps=0.2 q=24.0 size=       0KiB time=00:00:00.23 bitrate=   1.6kbits/s speed=0.00603x    frame=    9 fps=0.2 q=24.0 size=       0KiB time=00:00:00.23 bitrate=   1.6kbits/s speed=0.00595x    frame=    9 fps=0.2 q=24.0 size=       0KiB time=00:00:00.23 bitrate=   1.6kbits/s speed=0.00587x    frame=   12 fps=0.3 q=24.0 size=     256KiB time=00:00:00.33 bitrate=6292.6kbits/s speed=0.00828x    frame=   12 fps=0.3 q=24.0 size=     256KiB time=00:00:00.33 bitrate=6292.6kbits/s speed=0.00818x    frame=   14 fps=0.3 q=24.0 size=     256KiB time=00:00:00.40 bitrate=5243.8kbits/s speed=0.00969x    frame=   14 fps=0.3 q=24.0 size=     256KiB time=00:00:00.40 bitrate=5243.8kbits/s speed=0.00957x    frame=   17 fps=0.4 q=24.0 size=     256KiB time=00:00:00.50 bitrate=4195.1kbits/s speed=0.0118x    frame=   17 fps=0.4 q=24.0 size=     256KiB time=00:00:00.50 bitrate=4195.1kbits/s speed=0.0117x    frame=   19 fps=0.4 q=24.0 size=     256KiB time=00:00:00.56 bitrate=3701.5kbits/s speed=0.0131x    frame=   19 fps=0.4 q=24.0 size=     256KiB time=00:00:00.56 bitrate=3701.5kbits/s speed=0.0129x    frame=   22 fps=0.5 q=24.0 size=     256KiB time=00:00:00.66 bitrate=3146.3kbits/s speed=0.015x    frame=   22 fps=0.5 q=24.0 size=     256KiB time=00:00:00.66 bitrate=3146.3kbits/s speed=0.0148x    frame=   24 fps=0.5 q=24.0 size=     256KiB time=00:00:00.73 bitrate=2860.3kbits/s speed=0.0161x    frame=   24 fps=0.5 q=24.0 size=     256KiB time=00:00:00.73 bitrate=2860.3kbits/s speed=0.016x    frame=   27 fps=0.6 q=24.0 size=     512KiB time=00:00:00.83 bitrate=5033.6kbits/s speed=0.0179x    frame=   27 fps=0.6 q=24.0 size=     512KiB time=00:00:00.83 bitrate=5033.6kbits/s speed=0.0177x    frame=   27 fps=0.6 q=24.0 size=     512KiB time=00:00:00.83 bitrate=5033.6kbits/s speed=0.0176x    frame=   29 fps=0.6 q=24.0 size=     512KiB time=00:00:00.90 bitrate=4660.8kbits/s speed=0.0188x    frame=   29 fps=0.6 q=24.0 size=     512KiB time=00:00:00.90 bitrate=4660.8kbits/s speed=0.0185x    frame=   32 fps=0.7 q=24.0 size=     512KiB time=00:00:01.00 bitrate=4194.7kbits/s speed=0.0204x    frame=   32 fps=0.6 q=24.0 size=     512KiB time=00:00:01.00 bitrate=4194.7kbits/s speed=0.0202x    frame=   34 fps=0.7 q=24.0 size=     512KiB time=00:00:01.06 bitrate=3932.5kbits/s speed=0.0213x    frame=   34 fps=0.7 q=24.0 size=     512KiB time=00:00:01.06 bitrate=3932.5kbits/s speed=0.0211x    frame=   37 fps=0.7 q=24.0 size=     512KiB time=00:00:01.16 bitrate=3595.4kbits/s speed=0.0228x    frame=   37 fps=0.7 q=24.0 size=     512KiB time=00:00:01.16 bitrate=3595.4kbits/s speed=0.0226x    frame=   39 fps=0.7 q=24.0 size=     768KiB time=00:00:01.23 bitrate=5101.5kbits/s speed=0.0237x    frame=   39 fps=0.7 q=24.0 size=     768KiB time=00:00:01.23 bitrate=5101.5kbits/s speed=0.0234x    frame=   42 fps=0.8 q=24.0 size=     768KiB time=00:00:01.33 bitrate=4718.9kbits/s speed=0.0251x    frame=   42 fps=0.8 q=24.0 size=     768KiB time=00:00:01.33 bitrate=4718.9kbits/s speed=0.0248x    frame=   44 fps=0.8 q=24.0 size=     768KiB time=00:00:01.40 bitrate=4494.2kbits/s speed=0.0258x    frame=   44 fps=0.8 q=24.0 size=     768KiB time=00:00:01.40 bitrate=4494.2kbits/s speed=0.0256x    frame=   47 fps=0.9 q=24.0 size=     768KiB time=00:00:01.50 bitrate=4194.6kbits/s speed=0.0272x    frame=   47 fps=0.8 q=24.0 size=     768KiB time=00:00:01.50 bitrate=4194.6kbits/s speed=0.0269x    frame=   49 fps=0.9 q=24.0 size=     768KiB time=00:00:01.56 bitrate=4016.1kbits/s speed=0.0279x    frame=   49 fps=0.9 q=24.0 size=     768KiB time=00:00:01.56 bitrate=4016.1kbits/s speed=0.0276x    frame=   52 fps=0.9 q=24.0 size=     768KiB time=00:00:01.66 bitrate=3775.1kbits/s speed=0.0291x    frame=   52 fps=0.9 q=24.0 size=     768KiB time=00:00:01.66 bitrate=3775.1kbits/s speed=0.0288x    frame=   54 fps=0.9 q=24.0 size=     768KiB time=00:00:01.73 bitrate=3629.9kbits/s speed=0.0297x    frame=   54 fps=0.9 q=24.0 size=     768KiB time=00:00:01.73 bitrate=3629.9kbits/s speed=0.0295x    frame=   57 fps=1.0 q=24.0 size=     768KiB time=00:00:01.83 bitrate=3431.9kbits/s speed=0.0309x    frame=   57 fps=1.0 q=24.0 size=     768KiB time=00:00:01.83 bitrate=3431.9kbits/s speed=0.0306x    frame=   59 fps=1.0 q=24.0 size=    1024KiB time=00:00:01.90 bitrate=4415.3kbits/s speed=0.0315x    frame=   59 fps=1.0 q=24.0 size=    1024KiB time=00:00:01.90 bitrate=4415.3kbits/s speed=0.0312x    frame=   59 fps=1.0 q=24.0 size=    1024KiB time=00:00:01.90 bitrate=4415.3kbits/s speed=0.0309x    frame=   62 fps=1.0 q=24.0 size=    1024KiB time=00:00:02.00 bitrate=4194.5kbits/s speed=0.0323x    frame=   62 fps=1.0 q=24.0 size=    1024KiB time=00:00:02.00 bitrate=4194.5kbits/s speed=0.032x    frame=   64 fps=1.0 q=24.0 size=    1024KiB time=00:00:02.06 bitrate=4059.2kbits/s speed=0.0328x    frame=   64 fps=1.0 q=24.0 size=    1024KiB time=00:00:02.06 bitrate=4059.2kbits/s speed=0.0326x    frame=   67 fps=1.0 q=24.0 size=    1024KiB time=00:00:02.16 bitrate=3871.8kbits/s speed=0.0339x    frame=   67 fps=1.0 q=24.0 size=    1024KiB time=00:00:02.16 bitrate=3871.8kbits/s speed=0.0336x    frame=   69 fps=1.1 q=24.0 size=    1024KiB time=00:00:02.23 bitrate=3756.3kbits/s speed=0.0344x    frame=   69 fps=1.1 q=24.0 size=    1024KiB time=00:00:02.23 bitrate=3756.3kbits/s speed=0.0341x    frame=   72 fps=1.1 q=24.0 size=    1280KiB time=00:00:02.33 bitrate=4494.1kbits/s speed=0.0353x    frame=   72 fps=1.1 q=24.0 size=    1280KiB time=00:00:02.33 bitrate=4494.1kbits/s speed=0.0351x    frame=   74 fps=1.1 q=24.0 size=    1280KiB time=00:00:02.40 bitrate=4369.2kbits/s speed=0.0358x    frame=   74 fps=1.1 q=24.0 size=    1280KiB time=00:00:02.40 bitrate=4369.2kbits/s speed=0.0355x    frame=   74 fps=1.1 q=24.0 size=    1280KiB time=00:00:02.40 bitrate=4369.2kbits/s speed=0.0352x    frame=   77 fps=1.1 q=24.0 size=    1280KiB time=00:00:02.50 bitrate=4194.5kbits/s speed=0.0364x    frame=   77 fps=1.1 q=24.0 size=    1280KiB time=00:00:02.50 bitrate=4194.5kbits/s speed=0.0362x    frame=   79 fps=1.1 q=24.0 size=    1280KiB time=00:00:02.56 bitrate=4085.5kbits/s speed=0.0368x    frame=   79 fps=1.1 q=24.0 size=    1280KiB time=00:00:02.56 bitrate=4085.5kbits/s speed=0.0366x    frame=   82 fps=1.2 q=24.0 size=    1280KiB time=00:00:02.66 bitrate=3932.3kbits/s speed=0.0377x    frame=   82 fps=1.2 q=24.0 size=    1280KiB time=00:00:02.66 bitrate=3932.3kbits/s speed=0.0374x    frame=   84 fps=1.2 q=24.0 size=    1536KiB time=00:00:02.73 bitrate=4603.6kbits/s speed=0.0381x    frame=   84 fps=1.2 q=24.0 size=    1536KiB time=00:00:02.73 bitrate=4603.6kbits/s speed=0.0378x    frame=   87 fps=1.2 q=24.0 size=    1536KiB time=00:00:02.83 bitrate=4441.2kbits/s speed=0.0389x    frame=   87 fps=1.2 q=24.0 size=    1536KiB time=00:00:02.83 bitrate=4441.2kbits/s speed=0.0387x    frame=   89 fps=1.2 q=24.0 size=    1536KiB time=00:00:02.90 bitrate=4339.1kbits/s speed=0.0393x    frame=   89 fps=1.2 q=24.0 size=    1536KiB time=00:00:02.90 bitrate=4339.1kbits/s speed=0.039x    frame=   92 fps=1.2 q=24.0 size=    1536KiB time=00:00:03.00 bitrate=4194.4kbits/s speed=0.0401x    frame=   92 fps=1.2 q=24.0 size=    1536KiB time=00:00:03.00 bitrate=4194.4kbits/s speed=0.0398x    frame=   94 fps=1.2 q=24.0 size=    1536KiB time=00:00:03.06 bitrate=4103.2kbits/s speed=0.0404x    frame=   94 fps=1.2 q=24.0 size=    1536KiB time=00:00:03.06 bitrate=4103.2kbits/s speed=0.0402x    frame=   97 fps=1.3 q=24.0 size=    1536KiB time=00:00:03.16 bitrate=3973.7kbits/s speed=0.0412x    frame=   97 fps=1.3 q=24.0 size=    1536KiB time=00:00:03.16 bitrate=3973.7kbits/s speed=0.0409x    frame=   99 fps=1.3 q=24.0 size=    1792KiB time=00:00:03.23 bitrate=4540.3kbits/s speed=0.0415x    frame=   99 fps=1.3 q=24.0 size=    1792KiB time=00:00:03.23 bitrate=4540.3kbits/s speed=0.0412x    frame=  102 fps=1.3 q=24.0 size=    1792KiB time=00:00:03.33 bitrate=4404.1kbits/s speed=0.0422x    frame=  102 fps=1.3 q=24.0 size=    1792KiB time=00:00:03.33 bitrate=4404.1kbits/s speed=0.042x    frame=  104 fps=1.3 q=24.0 size=    1792KiB time=00:00:03.40 bitrate=4317.8kbits/s speed=0.0425x    frame=  104 fps=1.3 q=24.0 size=    1792KiB time=00:00:03.40 bitrate=4317.8kbits/s speed=0.0422x    frame=  107 fps=1.3 q=24.0 size=    1792KiB time=00:00:03.50 bitrate=4194.4kbits/s speed=0.0432x    frame=  107 fps=1.3 q=24.0 size=    1792KiB time=00:00:03.50 bitrate=4194.4kbits/s speed=0.0429x    frame=  109 fps=1.3 q=24.0 size=    1792KiB time=00:00:03.56 bitrate=4116.0kbits/s speed=0.0435x    frame=  109 fps=1.3 q=24.0 size=    1792KiB time=00:00:03.56 bitrate=4116.0kbits/s speed=0.0432x    frame=  112 fps=1.3 q=24.0 size=    2048KiB time=00:00:03.66 bitrate=4575.7kbits/s speed=0.0441x    frame=  112 fps=1.3 q=24.0 size=    2048KiB time=00:00:03.66 bitrate=4575.7kbits/s speed=0.0439x    frame=  114 fps=1.4 q=24.0 size=    2048KiB time=00:00:03.73 bitrate=4494.0kbits/s speed=0.0444x    frame=  114 fps=1.3 q=24.0 size=    2048KiB time=00:00:03.73 bitrate=4494.0kbits/s speed=0.0441x    frame=  117 fps=1.4 q=24.0 size=    2048KiB time=00:00:03.83 bitrate=4376.8kbits/s speed=0.045x    frame=  117 fps=1.4 q=24.0 size=    2048KiB time=00:00:03.83 bitrate=4376.8kbits/s speed=0.0448x    frame=  119 fps=1.4 q=24.0 size=    2048KiB time=00:00:03.90 bitrate=4301.9kbits/s speed=0.0453x    frame=  119 fps=1.4 q=24.0 size=    2048KiB time=00:00:03.90 bitrate=4301.9kbits/s speed=0.045x    frame=  122 fps=1.4 q=24.0 size=    2048KiB time=00:00:04.00 bitrate=4194.4kbits/s speed=0.0459x    frame=  122 fps=1.4 q=24.0 size=    2048KiB time=00:00:04.00 bitrate=4194.4kbits/s speed=0.0456x    frame=  124 fps=1.4 q=24.0 size=    2304KiB time=00:00:04.06 bitrate=4641.3kbits/s speed=0.0461x    frame=  124 fps=1.4 q=24.0 size=    2304KiB time=00:00:04.06 bitrate=4641.3kbits/s speed=0.0458x    frame=  127 fps=1.4 q=24.0 size=    2304KiB time=00:00:04.16 bitrate=4529.9kbits/s speed=0.0467x    frame=  127 fps=1.4 q=24.0 size=    2304KiB time=00:00:04.16 bitrate=4529.9kbits/s speed=0.0464x    frame=  127 fps=1.4 q=24.0 size=    2304KiB time=00:00:04.16 bitrate=4529.9kbits/s speed=0.0461x    frame=  129 fps=1.4 q=24.0 size=    2304KiB time=00:00:04.23 bitrate=4458.6kbits/s speed=0.0466x    frame=  129 fps=1.4 q=24.0 size=    2304KiB time=00:00:04.23 bitrate=4458.6kbits/s speed=0.0464x    frame=  132 fps=1.4 q=24.0 size=    2304KiB time=00:00:04.33 bitrate=4355.7kbits/s speed=0.0472x    frame=  132 fps=1.4 q=24.0 size=    2304KiB time=00:00:04.33 bitrate=4355.7kbits/s speed=0.0469x    frame=  134 fps=1.4 q=24.0 size=    2304KiB time=00:00:04.40 bitrate=4289.7kbits/s speed=0.0474x    frame=  134 fps=1.4 q=24.0 size=    2304KiB time=00:00:04.40 bitrate=4289.7kbits/s speed=0.0471x    frame=  137 fps=1.5 q=24.0 size=    2560KiB time=00:00:04.50 bitrate=4660.4kbits/s speed=0.0479x    frame=  137 fps=1.5 q=24.0 size=    2560KiB time=00:00:04.50 bitrate=4660.4kbits/s speed=0.0477x    frame=  139 fps=1.5 q=24.0 size=    2560KiB time=00:00:04.56 bitrate=4592.4kbits/s speed=0.0481x    frame=  139 fps=1.5 q=24.0 size=    2560KiB time=00:00:04.56 bitrate=4592.4kbits/s speed=0.0478x    frame=  142 fps=1.5 q=24.0 size=    2560KiB time=00:00:04.66 bitrate=4494.0kbits/s speed=0.0486x    frame=  142 fps=1.5 q=24.0 size=    2560KiB time=00:00:04.66 bitrate=4494.0kbits/s speed=0.0484x    frame=  142 fps=1.5 q=24.0 size=    2560KiB time=00:00:04.66 bitrate=4494.0kbits/s speed=0.0481x    frame=  144 fps=1.5 q=24.0 size=    2560KiB time=00:00:04.73 bitrate=4430.7kbits/s speed=0.0485x    frame=  144 fps=1.5 q=24.0 size=    2560KiB time=00:00:04.73 bitrate=4430.7kbits/s speed=0.0483x    frame=  147 fps=1.5 q=24.0 size=    2560KiB time=00:00:04.83 bitrate=4339.0kbits/s speed=0.049x    frame=  147 fps=1.5 q=24.0 size=    2560KiB time=00:00:04.83 bitrate=4339.0kbits/s speed=0.0488x    frame=  149 fps=1.5 q=24.0 size=    2560KiB time=00:00:04.90 bitrate=4280.0kbits/s speed=0.0492x    frame=  149 fps=1.5 q=24.0 size=    2560KiB time=00:00:04.90 bitrate=4280.0kbits/s speed=0.049x    frame=  149 fps=1.5 q=24.0 size=    2560KiB time=00:00:04.90 bitrate=4280.0kbits/s speed=0.0487x    frame=  152 fps=1.5 q=24.0 size=    2816KiB time=00:00:05.00 bitrate=4613.8kbits/s speed=0.0494x    frame=  152 fps=1.5 q=24.0 size=    2816KiB time=00:00:05.00 bitrate=4613.8kbits/s speed=0.0492x    frame=  152 fps=1.5 q=24.0 size=    2816KiB time=00:00:05.00 bitrate=4613.8kbits/s speed=0.0489x    frame=  154 fps=1.5 q=24.0 size=    2816KiB time=00:00:05.06 bitrate=4553.1kbits/s speed=0.0494x    frame=  154 fps=1.5 q=24.0 size=    2816KiB time=00:00:05.06 bitrate=4553.1kbits/s speed=0.0491x    frame=  157 fps=1.5 q=24.0 size=    2816KiB time=00:00:05.16 bitrate=4465.0kbits/s speed=0.0498x    frame=  157 fps=1.5 q=24.0 size=    2816KiB time=00:00:05.16 bitrate=4465.0kbits/s speed=0.0496x    frame=  159 fps=1.5 q=24.0 size=    2816KiB time=00:00:05.23 bitrate=4408.1kbits/s speed=0.05x    frame=  159 fps=1.5 q=24.0 size=    2816KiB time=00:00:05.23 bitrate=4408.1kbits/s speed=0.0497x    frame=  159 fps=1.5 q=24.0 size=    2816KiB time=00:00:05.23 bitrate=4408.1kbits/s speed=0.0495x    frame=  162 fps=1.5 q=24.0 size=    2816KiB time=00:00:05.33 bitrate=4325.4kbits/s speed=0.0502x    frame=  162 fps=1.5 q=24.0 size=    2816KiB time=00:00:05.33 bitrate=4325.4kbits/s speed=0.0499x    frame=  164 fps=1.5 q=24.0 size=    2816KiB time=00:00:05.40 bitrate=4272.0kbits/s speed=0.0503x    frame=  164 fps=1.5 q=24.0 size=    2816KiB time=00:00:05.40 bitrate=4272.0kbits/s speed=0.0501x    frame=  164 fps=1.5 q=24.0 size=    2816KiB time=00:00:05.40 bitrate=4272.0kbits/s speed=0.0498x    frame=  167 fps=1.5 q=24.0 size=    3072KiB time=00:00:05.50 bitrate=4575.7kbits/s speed=0.0505x    frame=  167 fps=1.5 q=24.0 size=    3072KiB time=00:00:05.50 bitrate=4575.7kbits/s speed=0.0503x    frame=  169 fps=1.5 q=24.0 size=    3072KiB time=00:00:05.56 bitrate=4520.9kbits/s speed=0.0507x    frame=  169 fps=1.5 q=24.0 size=    3072KiB time=00:00:05.56 bitrate=4520.9kbits/s speed=0.0504x    frame=  172 fps=1.6 q=24.0 size=    3072KiB time=00:00:05.66 bitrate=4441.1kbits/s speed=0.0511x    frame=  172 fps=1.5 q=24.0 size=    3072KiB time=00:00:05.66 bitrate=4441.1kbits/s speed=0.0509x    frame=  174 fps=1.6 q=24.0 size=    3072KiB time=00:00:05.73 bitrate=4389.5kbits/s speed=0.0512x    frame=  174 fps=1.5 q=24.0 size=    3072KiB time=00:00:05.73 bitrate=4389.5kbits/s speed=0.051x    frame=  177 fps=1.6 q=24.0 size=    3072KiB time=00:00:05.83 bitrate=4314.2kbits/s speed=0.0516x    frame=  177 fps=1.6 q=24.0 size=    3072KiB time=00:00:05.83 bitrate=4314.2kbits/s speed=0.0514x    frame=  177 fps=1.6 q=24.0 size=    3072KiB time=00:00:05.83 bitrate=4314.2kbits/s speed=0.0512x    frame=  179 fps=1.6 q=24.0 size=    3328KiB time=00:00:05.90 bitrate=4620.9kbits/s speed=0.0515x    frame=  179 fps=1.6 q=24.0 size=    3328KiB time=00:00:05.90 bitrate=4620.9kbits/s speed=0.0513x    frame=  182 fps=1.6 q=24.0 size=    3328KiB time=00:00:06.00 bitrate=4543.9kbits/s speed=0.0519x    frame=  182 fps=1.6 q=24.0 size=    3328KiB time=00:00:06.00 bitrate=4543.9kbits/s speed=0.0517x    frame=  184 fps=1.6 q=24.0 size=    3328KiB time=00:00:06.06 bitrate=4494.0kbits/s speed=0.052x    frame=  184 fps=1.6 q=24.0 size=    3328KiB time=00:00:06.06 bitrate=4494.0kbits/s speed=0.0518x    frame=  187 fps=1.6 q=24.0 size=    3328KiB time=00:00:06.16 bitrate=4421.1kbits/s speed=0.0524x    frame=  187 fps=1.6 q=24.0 size=    3328KiB time=00:00:06.16 bitrate=4421.1kbits/s speed=0.0522x    frame=  187 fps=1.6 q=24.0 size=    3328KiB time=00:00:06.16 bitrate=4421.1kbits/s speed=0.052x    frame=  189 fps=1.6 q=24.0 size=    3584KiB time=00:00:06.23 bitrate=4710.2kbits/s speed=0.0523x    frame=  189 fps=1.6 q=24.0 size=    3584KiB time=00:00:06.23 bitrate=4710.2kbits/s speed=0.0521x    frame=  192 fps=1.6 q=24.0 size=    3584KiB time=00:00:06.33 bitrate=4635.9kbits/s speed=0.0527x    frame=  192 fps=1.6 q=24.0 size=    3584KiB time=00:00:06.33 bitrate=4635.9kbits/s speed=0.0525x    frame=  194 fps=1.6 q=24.0 size=    3584KiB time=00:00:06.40 bitrate=4587.6kbits/s speed=0.0528x    frame=  194 fps=1.6 q=24.0 size=    3584KiB time=00:00:06.40 bitrate=4587.6kbits/s speed=0.0526x    frame=  197 fps=1.6 q=24.0 size=    3584KiB time=00:00:06.50 bitrate=4517.0kbits/s speed=0.0532x    frame=  197 fps=1.6 q=24.0 size=    3584KiB time=00:00:06.50 bitrate=4517.0kbits/s speed=0.0529x    frame=  199 fps=1.6 q=24.0 size=    3584KiB time=00:00:06.56 bitrate=4471.1kbits/s speed=0.0533x    frame=  199 fps=1.6 q=24.0 size=    3584KiB time=00:00:06.56 bitrate=4471.1kbits/s speed=0.053x    frame=  202 fps=1.6 q=24.0 size=    3840KiB time=00:00:06.66 bitrate=4718.6kbits/s speed=0.0536x    frame=  202 fps=1.6 q=24.0 size=    3840KiB time=00:00:06.66 bitrate=4718.6kbits/s speed=0.0534x    frame=  204 fps=1.6 q=24.0 size=    3840KiB time=00:00:06.73 bitrate=4671.9kbits/s speed=0.0537x    frame=  204 fps=1.6 q=24.0 size=    3840KiB time=00:00:06.73 bitrate=4671.9kbits/s speed=0.0535x    frame=  207 fps=1.6 q=24.0 size=    3840KiB time=00:00:06.83 bitrate=4603.6kbits/s speed=0.0541x    frame=  207 fps=1.6 q=24.0 size=    3840KiB time=00:00:06.83 bitrate=4603.6kbits/s speed=0.0538x    frame=  209 fps=1.6 q=24.0 size=    3840KiB time=00:00:06.90 bitrate=4559.1kbits/s speed=0.0542x    frame=  209 fps=1.6 q=24.0 size=    3840KiB time=00:00:06.90 bitrate=4559.1kbits/s speed=0.0539x    frame=  212 fps=1.7 q=24.0 size=    3840KiB time=00:00:07.00 bitrate=4494.0kbits/s speed=0.0545x    frame=  212 fps=1.6 q=24.0 size=    3840KiB time=00:00:07.00 bitrate=4494.0kbits/s speed=0.0543x    frame=  212 fps=1.6 q=24.0 size=    3840KiB time=00:00:07.00 bitrate=4494.0kbits/s speed=0.0541x    frame=  214 fps=1.6 q=24.0 size=    4096KiB time=00:00:07.06 bitrate=4748.3kbits/s speed=0.0544x    frame=  214 fps=1.6 q=24.0 size=    4096KiB time=00:00:07.06 bitrate=4748.3kbits/s speed=0.0541x    frame=  217 fps=1.7 q=24.0 size=    4096KiB time=00:00:07.16 bitrate=4682.1kbits/s speed=0.0547x    frame=  217 fps=1.6 q=24.0 size=    4096KiB time=00:00:07.16 bitrate=4682.1kbits/s speed=0.0545x    frame=  219 fps=1.7 q=24.0 size=    4096KiB time=00:00:07.23 bitrate=4638.9kbits/s speed=0.0548x    frame=  219 fps=1.7 q=24.0 size=    4096KiB time=00:00:07.23 bitrate=4638.9kbits/s speed=0.0546x    frame=  222 fps=1.7 q=24.0 size=    4096KiB time=00:00:07.33 bitrate=4575.7kbits/s speed=0.0551x    frame=  222 fps=1.7 q=24.0 size=    4096KiB time=00:00:07.33 bitrate=4575.7kbits/s speed=0.0549x    frame=  224 fps=1.7 q=24.0 size=    4096KiB time=00:00:07.40 bitrate=4534.4kbits/s speed=0.0552x    frame=  224 fps=1.7 q=24.0 size=    4096KiB time=00:00:07.40 bitrate=4534.4kbits/s speed=0.055x    frame=  224 fps=1.7 q=24.0 size=    4096KiB time=00:00:07.40 bitrate=4534.4kbits/s speed=0.0548x    frame=  227 fps=1.7 q=24.0 size=    4096KiB time=00:00:07.50 bitrate=4474.0kbits/s speed=0.0553x    frame=  227 fps=1.7 q=24.0 size=    4096KiB time=00:00:07.50 bitrate=4474.0kbits/s speed=0.0551x    frame=  229 fps=1.7 q=24.0 size=    4096KiB time=00:00:07.56 bitrate=4434.6kbits/s speed=0.0554x    frame=  229 fps=1.7 q=24.0 size=    4096KiB time=00:00:07.56 bitrate=4434.6kbits/s speed=0.0551x    frame=  230 fps=1.7 q=24.0 size=    4352KiB time=00:00:07.60 bitrate=4691.0kbits/s speed=0.0552x    frame=  232 fps=1.7 q=24.0 size=    4352KiB time=00:00:07.66 bitrate=4650.3kbits/s speed=0.0555x    frame=  232 fps=1.7 q=24.0 size=    4352KiB time=00:00:07.66 bitrate=4650.3kbits/s speed=0.0552x    frame=  234 fps=1.7 q=24.0 size=    4352KiB time=00:00:07.73 bitrate=4610.2kbits/s speed=0.0555x    frame=  234 fps=1.7 q=24.0 size=    4352KiB time=00:00:07.73 bitrate=4610.2kbits/s speed=0.0553x    frame=  237 fps=1.7 q=24.0 size=    4352KiB time=00:00:07.83 bitrate=4551.3kbits/s speed=0.0558x    frame=  237 fps=1.7 q=24.0 size=    4352KiB time=00:00:07.83 bitrate=4551.3kbits/s speed=0.0556x    frame=  237 fps=1.7 q=24.0 size=    4352KiB time=00:00:07.83 bitrate=4551.3kbits/s speed=0.0554x    frame=  239 fps=1.7 q=24.0 size=    4352KiB time=00:00:07.90 bitrate=4512.9kbits/s speed=0.0557x    frame=  239 fps=1.7 q=24.0 size=    4352KiB time=00:00:07.90 bitrate=4512.9kbits/s speed=0.0555x    frame=  242 fps=1.7 q=24.0 size=    4352KiB time=00:00:08.00 bitrate=4456.5kbits/s speed=0.056x    frame=  242 fps=1.7 q=24.0 size=    4352KiB time=00:00:08.00 bitrate=4456.5kbits/s speed=0.0558x    frame=  244 fps=1.7 q=24.0 size=    4352KiB time=00:00:08.06 bitrate=4419.7kbits/s speed=0.056x    frame=  244 fps=1.7 q=24.0 size=    4352KiB time=00:00:08.06 bitrate=4419.7kbits/s speed=0.0558x    frame=  244 fps=1.7 q=24.0 size=    4352KiB time=00:00:08.06 bitrate=4419.7kbits/s speed=0.0556x    frame=  247 fps=1.7 q=24.0 size=    4608KiB time=00:00:08.16 bitrate=4622.3kbits/s speed=0.0561x    frame=  247 fps=1.7 q=24.0 size=    4608KiB time=00:00:08.16 bitrate=4622.3kbits/s speed=0.0559x    frame=  249 fps=1.7 q=24.0 size=    4608KiB time=00:00:08.23 bitrate=4584.9kbits/s speed=0.0562x    frame=  249 fps=1.7 q=24.0 size=    4608KiB time=00:00:08.23 bitrate=4584.9kbits/s speed=0.056x    frame=  252 fps=1.7 q=24.0 size=    4864KiB time=00:00:08.33 bitrate=4781.6kbits/s speed=0.0565x    frame=  252 fps=1.7 q=24.0 size=    4864KiB time=00:00:08.33 bitrate=4781.6kbits/s speed=0.0563x    frame=  252 fps=1.7 q=24.0 size=    4864KiB time=00:00:08.33 bitrate=4781.6kbits/s speed=0.0561x    frame=  254 fps=1.7 q=24.0 size=    4864KiB time=00:00:08.40 bitrate=4743.6kbits/s speed=0.0563x    frame=  254 fps=1.7 q=24.0 size=    4864KiB time=00:00:08.40 bitrate=4743.6kbits/s speed=0.0561x    frame=  257 fps=1.7 q=24.0 size=    4864KiB time=00:00:08.50 bitrate=4687.8kbits/s speed=0.0566x    frame=  257 fps=1.7 q=24.0 size=    4864KiB time=00:00:08.50 bitrate=4687.8kbits/s speed=0.0564x    frame=  259 fps=1.7 q=24.0 size=    4864KiB time=00:00:08.56 bitrate=4651.3kbits/s speed=0.0567x    frame=  259 fps=1.7 q=24.0 size=    4864KiB time=00:00:08.56 bitrate=4651.3kbits/s speed=0.0565x    frame=  262 fps=1.7 q=24.0 size=    4864KiB time=00:00:08.66 bitrate=4597.6kbits/s speed=0.0569x    frame=  262 fps=1.7 q=24.0 size=    4864KiB time=00:00:08.66 bitrate=4597.6kbits/s speed=0.0568x    frame=  262 fps=1.7 q=24.0 size=    4864KiB time=00:00:08.66 bitrate=4597.6kbits/s speed=0.0566x    frame=  264 fps=1.7 q=24.0 size=    5120KiB time=00:00:08.73 bitrate=4802.7kbits/s speed=0.0568x    frame=  264 fps=1.7 q=24.0 size=    5120KiB time=00:00:08.73 bitrate=4802.7kbits/s speed=0.0566x    frame=  267 fps=1.7 q=24.0 size=    5120KiB time=00:00:08.83 bitrate=4748.3kbits/s speed=0.0571x    frame=  267 fps=1.7 q=24.0 size=    5120KiB time=00:00:08.83 bitrate=4748.3kbits/s speed=0.0569x    frame=  269 fps=1.7 q=24.0 size=    5120KiB time=00:00:08.90 bitrate=4712.7kbits/s speed=0.0571x    frame=  269 fps=1.7 q=24.0 size=    5120KiB time=00:00:08.90 bitrate=4712.7kbits/s speed=0.0569x    frame=  272 fps=1.7 q=24.0 size=    5120KiB time=00:00:09.00 bitrate=4660.4kbits/s speed=0.0574x    frame=  272 fps=1.7 q=24.0 size=    5120KiB time=00:00:09.00 bitrate=4660.4kbits/s speed=0.0572x    frame=  274 fps=1.7 q=24.0 size=    5120KiB time=00:00:09.06 bitrate=4626.1kbits/s speed=0.0574x    frame=  274 fps=1.7 q=24.0 size=    5120KiB time=00:00:09.06 bitrate=4626.1kbits/s speed=0.0572x    frame=  274 fps=1.7 q=24.0 size=    5120KiB time=00:00:09.06 bitrate=4626.1kbits/s speed=0.0571x    frame=  277 fps=1.7 q=24.0 size=    5376KiB time=00:00:09.16 bitrate=4804.4kbits/s speed=0.0575x    frame=  277 fps=1.7 q=24.0 size=    5376KiB time=00:00:09.16 bitrate=4804.4kbits/s speed=0.0573x    frame=  279 fps=1.7 q=24.0 size=    5376KiB time=00:00:09.23 bitrate=4769.7kbits/s speed=0.0575x    frame=  279 fps=1.7 q=24.0 size=    5376KiB time=00:00:09.23 bitrate=4769.7kbits/s speed=0.0574x    frame=  282 fps=1.7 q=24.0 size=    5376KiB time=00:00:09.33 bitrate=4718.6kbits/s speed=0.0578x    frame=  282 fps=1.7 q=24.0 size=    5376KiB time=00:00:09.33 bitrate=4718.6kbits/s speed=0.0576x    frame=  284 fps=1.7 q=24.0 size=    5376KiB time=00:00:09.40 bitrate=4685.2kbits/s speed=0.0578x    frame=  284 fps=1.7 q=24.0 size=    5376KiB time=00:00:09.40 bitrate=4685.2kbits/s speed=0.0577x    frame=  284 fps=1.7 q=24.0 size=    5376KiB time=00:00:09.40 bitrate=4685.2kbits/s speed=0.0575x    frame=  287 fps=1.7 q=24.0 size=    5632KiB time=00:00:09.50 bitrate=4856.6kbits/s speed=0.0579x    frame=  287 fps=1.7 q=24.0 size=    5632KiB time=00:00:09.50 bitrate=4856.6kbits/s speed=0.0577x    frame=  289 fps=1.8 q=24.0 size=    5632KiB time=00:00:09.56 bitrate=4822.8kbits/s speed=0.0579x    frame=  289 fps=1.7 q=24.0 size=    5632KiB time=00:00:09.56 bitrate=4822.8kbits/s speed=0.0578x    frame=  292 fps=1.8 q=24.0 size=    5632KiB time=00:00:09.66 bitrate=4772.9kbits/s speed=0.0582x    frame=  292 fps=1.8 q=24.0 size=    5632KiB time=00:00:09.66 bitrate=4772.9kbits/s speed=0.058x    frame=  294 fps=1.8 q=24.0 size=    5632KiB time=00:00:09.73 bitrate=4740.2kbits/s speed=0.0582x    frame=  294 fps=1.8 q=24.0 size=    5632KiB time=00:00:09.73 bitrate=4740.2kbits/s speed=0.058x    frame=  297 fps=1.8 q=24.0 size=    5632KiB time=00:00:09.83 bitrate=4692.0kbits/s speed=0.0585x    frame=  297 fps=1.8 q=24.0 size=    5632KiB time=00:00:09.83 bitrate=4692.0kbits/s speed=0.0583x    frame=  299 fps=1.8 q=24.0 size=    5632KiB time=00:00:09.90 bitrate=4660.4kbits/s speed=0.0585x    frame=  299 fps=1.8 q=24.0 size=    5632KiB time=00:00:09.90 bitrate=4660.4kbits/s speed=0.0583x    frame=  299 fps=1.8 q=24.0 size=    5632KiB time=00:00:09.90 bitrate=4660.4kbits/s speed=0.0582x    frame=  302 fps=1.8 q=24.0 size=    5888KiB time=00:00:10.00 bitrate=4823.5kbits/s speed=0.0586x    frame=  302 fps=1.8 q=24.0 size=    5888KiB time=00:00:10.00 bitrate=4823.5kbits/s speed=0.0584x    frame=  304 fps=1.8 q=24.0 size=    5888KiB time=00:00:10.06 bitrate=4791.5kbits/s speed=0.0586x    frame=  304 fps=1.8 q=24.0 size=    5888KiB time=00:00:10.06 bitrate=4791.5kbits/s speed=0.0584x    frame=  307 fps=1.8 q=24.0 size=    5888KiB time=00:00:10.16 bitrate=4744.4kbits/s speed=0.0588x    frame=  307 fps=1.8 q=24.0 size=    5888KiB time=00:00:10.16 bitrate=4744.4kbits/s speed=0.0587x    frame=  309 fps=1.8 q=24.0 size=    6144KiB time=00:00:10.23 bitrate=4918.4kbits/s speed=0.0589x    frame=  309 fps=1.8 q=24.0 size=    6144KiB time=00:00:10.23 bitrate=4918.4kbits/s speed=0.0587x    frame=  309 fps=1.8 q=24.0 size=    6144KiB time=00:00:10.23 bitrate=4918.4kbits/s speed=0.0585x    frame=  312 fps=1.8 q=24.0 size=    6144KiB time=00:00:10.33 bitrate=4870.8kbits/s speed=0.0589x    frame=  312 fps=1.8 q=24.0 size=    6144KiB time=00:00:10.33 bitrate=4870.8kbits/s speed=0.0587x    frame=  314 fps=1.8 q=24.0 size=    6144KiB time=00:00:10.40 bitrate=4839.6kbits/s speed=0.0589x    frame=  314 fps=1.8 q=24.0 size=    6144KiB time=00:00:10.40 bitrate=4839.6kbits/s speed=0.0588x    frame=  317 fps=1.8 q=24.0 size=    6144KiB time=00:00:10.50 bitrate=4793.5kbits/s speed=0.0592x    frame=  317 fps=1.8 q=24.0 size=    6144KiB time=00:00:10.50 bitrate=4793.5kbits/s speed=0.059x    frame=  317 fps=1.8 q=24.0 size=    6144KiB time=00:00:10.50 bitrate=4793.5kbits/s speed=0.0588x    frame=  319 fps=1.8 q=24.0 size=    6144KiB time=00:00:10.56 bitrate=4763.3kbits/s speed=0.059x    frame=  319 fps=1.8 q=24.0 size=    6144KiB time=00:00:10.56 bitrate=4763.3kbits/s speed=0.0589x    frame=  322 fps=1.8 q=24.0 size=    6400KiB time=00:00:10.66 bitrate=4915.2kbits/s speed=0.0592x    frame=  322 fps=1.8 q=24.0 size=    6400KiB time=00:00:10.66 bitrate=4915.2kbits/s speed=0.0591x    frame=  322 fps=1.8 q=24.0 size=    6400KiB time=00:00:10.66 bitrate=4915.2kbits/s speed=0.0589x    frame=  324 fps=1.8 q=24.0 size=    6400KiB time=00:00:10.73 bitrate=4884.7kbits/s speed=0.0591x    frame=  324 fps=1.8 q=24.0 size=    6400KiB time=00:00:10.73 bitrate=4884.7kbits/s speed=0.0589x    frame=  324 fps=1.8 q=24.0 size=    6400KiB time=00:00:10.73 bitrate=4884.7kbits/s speed=0.0588x    frame=  327 fps=1.8 q=24.0 size=    6400KiB time=00:00:10.83 bitrate=4839.6kbits/s speed=0.0592x    frame=  327 fps=1.8 q=24.0 size=    6400KiB time=00:00:10.83 bitrate=4839.6kbits/s speed=0.059x    frame=  329 fps=1.8 q=24.0 size=    6400KiB time=00:00:10.90 bitrate=4810.0kbits/s speed=0.0592x    frame=  329 fps=1.8 q=24.0 size=    6400KiB time=00:00:10.90 bitrate=4810.0kbits/s speed=0.059x    frame=  332 fps=1.8 q=24.0 size=    6400KiB time=00:00:11.00 bitrate=4766.3kbits/s speed=0.0594x    frame=  332 fps=1.8 q=24.0 size=    6400KiB time=00:00:11.00 bitrate=4766.3kbits/s speed=0.0592x    frame=  332 fps=1.8 q=24.0 size=    6400KiB time=00:00:11.00 bitrate=4766.3kbits/s speed=0.0591x    frame=  334 fps=1.8 q=24.0 size=    6400KiB time=00:00:11.06 bitrate=4737.6kbits/s speed=0.0593x    frame=  334 fps=1.8 q=24.0 size=    6400KiB time=00:00:11.06 bitrate=4737.6kbits/s speed=0.0591x    frame=  337 fps=1.8 q=24.0 size=    6400KiB time=00:00:11.16 bitrate=4695.2kbits/s speed=0.0595x    frame=  337 fps=1.8 q=24.0 size=    6400KiB time=00:00:11.16 bitrate=4695.2kbits/s speed=0.0593x    frame=  337 fps=1.8 q=24.0 size=    6400KiB time=00:00:11.16 bitrate=4695.2kbits/s speed=0.0591x    frame=  339 fps=1.8 q=24.0 size=    6656KiB time=00:00:11.23 bitrate=4854.0kbits/s speed=0.0593x    frame=  339 fps=1.8 q=24.0 size=    6656KiB time=00:00:11.23 bitrate=4854.0kbits/s speed=0.0592x    frame=  342 fps=1.8 q=24.0 size=    6656KiB time=00:00:11.33 bitrate=4811.1kbits/s speed=0.0595x    frame=  342 fps=1.8 q=24.0 size=    6656KiB time=00:00:11.33 bitrate=4811.1kbits/s speed=0.0594x    frame=  342 fps=1.8 q=24.0 size=    6656KiB time=00:00:11.33 bitrate=4811.1kbits/s speed=0.0592x    frame=  344 fps=1.8 q=24.0 size=    6656KiB time=00:00:11.40 bitrate=4783.0kbits/s speed=0.0594x    frame=  344 fps=1.8 q=24.0 size=    6656KiB time=00:00:11.40 bitrate=4783.0kbits/s speed=0.0592x    frame=  347 fps=1.8 q=24.0 size=    6656KiB time=00:00:11.50 bitrate=4741.4kbits/s speed=0.0596x    frame=  347 fps=1.8 q=24.0 size=    6656KiB time=00:00:11.50 bitrate=4741.4kbits/s speed=0.0594x    frame=  347 fps=1.8 q=24.0 size=    6656KiB time=00:00:11.50 bitrate=4741.4kbits/s speed=0.0593x    frame=  349 fps=1.8 q=24.0 size=    6656KiB time=00:00:11.56 bitrate=4714.1kbits/s speed=0.0595x    frame=  349 fps=1.8 q=24.0 size=    6656KiB time=00:00:11.56 bitrate=4714.1kbits/s speed=0.0593x    frame=  352 fps=1.8 q=24.0 size=    6912KiB time=00:00:11.66 bitrate=4853.4kbits/s speed=0.0597x    frame=  352 fps=1.8 q=24.0 size=    6912KiB time=00:00:11.66 bitrate=4853.4kbits/s speed=0.0595x    frame=  354 fps=1.8 q=24.0 size=    6912KiB time=00:00:11.73 bitrate=4825.9kbits/s speed=0.0597x    frame=  354 fps=1.8 q=24.0 size=    6912KiB time=00:00:11.73 bitrate=4825.9kbits/s speed=0.0595x    frame=  354 fps=1.8 q=24.0 size=    6912KiB time=00:00:11.73 bitrate=4825.9kbits/s speed=0.0594x    frame=  357 fps=1.8 q=24.0 size=    6912KiB time=00:00:11.83 bitrate=4785.1kbits/s speed=0.0597x    frame=  357 fps=1.8 q=24.0 size=    6912KiB time=00:00:11.83 bitrate=4785.1kbits/s speed=0.0596x    frame=  359 fps=1.8 q=24.0 size=    6912KiB time=00:00:11.90 bitrate=4758.3kbits/s speed=0.0598x    frame=  359 fps=1.8 q=24.0 size=    6912KiB time=00:00:11.90 bitrate=4758.3kbits/s speed=0.0596x    frame=  359 fps=1.8 q=24.0 size=    6912KiB time=00:00:11.90 bitrate=4758.3kbits/s speed=0.0595x    frame=  362 fps=1.8 q=24.0 size=    7168KiB time=00:00:12.00 bitrate=4893.4kbits/s speed=0.0598x    frame=  362 fps=1.8 q=24.0 size=    7168KiB time=00:00:12.00 bitrate=4893.4kbits/s speed=0.0596x    frame=  364 fps=1.8 q=24.0 size=    7168KiB time=00:00:12.06 bitrate=4866.4kbits/s speed=0.0598x    frame=  364 fps=1.8 q=24.0 size=    7168KiB time=00:00:12.06 bitrate=4866.4kbits/s speed=0.0597x    frame=  367 fps=1.8 q=24.0 size=    7168KiB time=00:00:12.16 bitrate=4826.4kbits/s speed=0.06x    frame=  367 fps=1.8 q=24.0 size=    7168KiB time=00:00:12.16 bitrate=4826.4kbits/s speed=0.0599x    frame=  369 fps=1.8 q=24.0 size=    7168KiB time=00:00:12.23 bitrate=4800.1kbits/s speed=0.06x    frame=  369 fps=1.8 q=24.0 size=    7168KiB time=00:00:12.23 bitrate=4800.1kbits/s speed=0.0599x    frame=  372 fps=1.8 q=24.0 size=    7168KiB time=00:00:12.33 bitrate=4761.1kbits/s speed=0.0602x    frame=  372 fps=1.8 q=24.0 size=    7168KiB time=00:00:12.33 bitrate=4761.1kbits/s speed=0.0601x    frame=  372 fps=1.8 q=24.0 size=    7168KiB time=00:00:12.33 bitrate=4761.1kbits/s speed=0.0599x    frame=  374 fps=1.8 q=24.0 size=    7424KiB time=00:00:12.40 bitrate=4904.7kbits/s speed=0.0601x    frame=  374 fps=1.8 q=24.0 size=    7424KiB time=00:00:12.40 bitrate=4904.7kbits/s speed=0.0599x    frame=  377 fps=1.8 q=24.0 size=    7424KiB time=00:00:12.50 bitrate=4865.4kbits/s speed=0.0603x    frame=  377 fps=1.8 q=24.0 size=    7424KiB time=00:00:12.50 bitrate=4865.4kbits/s speed=0.0601x    frame=  379 fps=1.8 q=24.0 size=    7424KiB time=00:00:12.56 bitrate=4839.6kbits/s speed=0.0603x    frame=  379 fps=1.8 q=24.0 size=    7424KiB time=00:00:12.56 bitrate=4839.6kbits/s speed=0.0602x    frame=  382 fps=1.8 q=24.0 size=    7424KiB time=00:00:12.66 bitrate=4801.4kbits/s speed=0.0605x    frame=  382 fps=1.8 q=24.0 size=    7424KiB time=00:00:12.66 bitrate=4801.4kbits/s speed=0.0603x    frame=  384 fps=1.8 q=24.0 size=    7424KiB time=00:00:12.73 bitrate=4776.3kbits/s speed=0.0605x    frame=  384 fps=1.8 q=24.0 size=    7424KiB time=00:00:12.73 bitrate=4776.3kbits/s speed=0.0604x    frame=  387 fps=1.8 q=24.0 size=    7680KiB time=00:00:12.83 bitrate=4902.5kbits/s speed=0.0607x    frame=  387 fps=1.8 q=24.0 size=    7680KiB time=00:00:12.83 bitrate=4902.5kbits/s speed=0.0605x    frame=  389 fps=1.8 q=24.0 size=    7680KiB time=00:00:12.90 bitrate=4877.1kbits/s speed=0.0607x    frame=  389 fps=1.8 q=24.0 size=    7680KiB time=00:00:12.90 bitrate=4877.1kbits/s speed=0.0606x    frame=  392 fps=1.8 q=24.0 size=    7680KiB time=00:00:13.00 bitrate=4839.6kbits/s speed=0.0609x    frame=  392 fps=1.8 q=24.0 size=    7680KiB time=00:00:13.00 bitrate=4839.6kbits/s speed=0.0607x    frame=  392 fps=1.8 q=24.0 size=    7680KiB time=00:00:13.00 bitrate=4839.6kbits/s speed=0.0606x    frame=  394 fps=1.8 q=24.0 size=    7680KiB time=00:00:13.06 bitrate=4814.9kbits/s speed=0.0607x    frame=  394 fps=1.8 q=24.0 size=    7680KiB time=00:00:13.06 bitrate=4814.9kbits/s speed=0.0606x    frame=  397 fps=1.8 q=24.0 size=    7680KiB time=00:00:13.16 bitrate=4778.4kbits/s speed=0.0609x    frame=  397 fps=1.8 q=24.0 size=    7680KiB time=00:00:13.16 bitrate=4778.4kbits/s speed=0.0608x    frame=  399 fps=1.8 q=24.0 size=    7936KiB time=00:00:13.23 bitrate=4912.8kbits/s speed=0.0609x    frame=  399 fps=1.8 q=24.0 size=    7936KiB time=00:00:13.23 bitrate=4912.8kbits/s speed=0.0608x    frame=  402 fps=1.8 q=24.0 size=    7936KiB time=00:00:13.33 bitrate=4875.9kbits/s speed=0.0611x    frame=  402 fps=1.8 q=24.0 size=    7936KiB time=00:00:13.33 bitrate=4875.9kbits/s speed=0.061x    frame=  404 fps=1.8 q=24.0 size=    7936KiB time=00:00:13.40 bitrate=4851.6kbits/s speed=0.0611x    frame=  404 fps=1.8 q=24.0 size=    7936KiB time=00:00:13.40 bitrate=4851.6kbits/s speed=0.061x    frame=  404 fps=1.8 q=24.0 size=    7936KiB time=00:00:13.40 bitrate=4851.6kbits/s speed=0.0608x    frame=  407 fps=1.8 q=24.0 size=    7936KiB time=00:00:13.50 bitrate=4815.7kbits/s speed=0.0611x    frame=  407 fps=1.8 q=24.0 size=    7936KiB time=00:00:13.50 bitrate=4815.7kbits/s speed=0.061x    frame=  409 fps=1.8 q=24.0 size=    7936KiB time=00:00:13.56 bitrate=4792.0kbits/s speed=0.0612x    frame=  409 fps=1.8 q=24.0 size=    7936KiB time=00:00:13.56 bitrate=4792.0kbits/s speed=0.061x    frame=  409 fps=1.8 q=24.0 size=    7936KiB time=00:00:13.56 bitrate=4792.0kbits/s speed=0.0609x    frame=  412 fps=1.8 q=24.0 size=    8192KiB time=00:00:13.66 bitrate=4910.4kbits/s speed=0.0612x    frame=  412 fps=1.8 q=24.0 size=    8192KiB time=00:00:13.66 bitrate=4910.4kbits/s speed=0.061x    frame=  414 fps=1.8 q=24.0 size=    8192KiB time=00:00:13.73 bitrate=4886.6kbits/s speed=0.0612x    frame=  414 fps=1.8 q=24.0 size=    8192KiB time=00:00:13.73 bitrate=4886.6kbits/s speed=0.0611x    frame=  417 fps=1.8 q=24.0 size=    8192KiB time=00:00:13.83 bitrate=4851.3kbits/s speed=0.0614x    frame=  417 fps=1.8 q=24.0 size=    8192KiB time=00:00:13.83 bitrate=4851.3kbits/s speed=0.0612x    frame=  417 fps=1.8 q=24.0 size=    8192KiB time=00:00:13.83 bitrate=4851.3kbits/s speed=0.0611x    frame=  419 fps=1.8 q=24.0 size=    8192KiB time=00:00:13.90 bitrate=4828.0kbits/s speed=0.0612x    frame=  419 fps=1.8 q=24.0 size=    8192KiB time=00:00:13.90 bitrate=4828.0kbits/s speed=0.0611x    frame=  422 fps=1.9 q=24.0 size=    8448KiB time=00:00:14.00 bitrate=4943.3kbits/s speed=0.0614x    frame=  422 fps=1.8 q=24.0 size=    8448KiB time=00:00:14.00 bitrate=4943.3kbits/s speed=0.0613x    frame=  422 fps=1.8 q=24.0 size=    8448KiB time=00:00:14.00 bitrate=4943.3kbits/s speed=0.0611x    frame=  424 fps=1.8 q=24.0 size=    8448KiB time=00:00:14.06 bitrate=4919.9kbits/s speed=0.0613x    frame=  424 fps=1.8 q=24.0 size=    8448KiB time=00:00:14.06 bitrate=4919.9kbits/s speed=0.0611x    frame=  427 fps=1.9 q=24.0 size=    8448KiB time=00:00:14.16 bitrate=4885.2kbits/s speed=0.0614x    frame=  427 fps=1.8 q=24.0 size=    8448KiB time=00:00:14.16 bitrate=4885.2kbits/s speed=0.0613x    frame=  429 fps=1.9 q=24.0 size=    8448KiB time=00:00:14.23 bitrate=4862.3kbits/s speed=0.0614x    frame=  429 fps=1.8 q=24.0 size=    8448KiB time=00:00:14.23 bitrate=4862.3kbits/s speed=0.0613x    frame=  429 fps=1.8 q=24.0 size=    8448KiB time=00:00:14.23 bitrate=4862.3kbits/s speed=0.0612x    frame=  432 fps=1.9 q=24.0 size=    8704KiB time=00:00:14.33 bitrate=4974.7kbits/s speed=0.0615x    frame=  432 fps=1.8 q=24.0 size=    8704KiB time=00:00:14.33 bitrate=4974.7kbits/s speed=0.0613x    frame=  434 fps=1.9 q=24.0 size=    8704KiB time=00:00:14.40 bitrate=4951.6kbits/s speed=0.0615x    frame=  434 fps=1.8 q=24.0 size=    8704KiB time=00:00:14.40 bitrate=4951.6kbits/s speed=0.0614x    frame=  434 fps=1.8 q=24.0 size=    8704KiB time=00:00:14.40 bitrate=4951.6kbits/s speed=0.0612x    frame=  437 fps=1.9 q=24.0 size=    8704KiB time=00:00:14.50 bitrate=4917.5kbits/s speed=0.0615x    frame=  437 fps=1.8 q=24.0 size=    8704KiB time=00:00:14.50 bitrate=4917.5kbits/s speed=0.0614x    frame=  439 fps=1.9 q=24.0 size=    8704KiB time=00:00:14.56 bitrate=4895.0kbits/s speed=0.0615x    frame=  439 fps=1.8 q=24.0 size=    8704KiB time=00:00:14.56 bitrate=4895.0kbits/s speed=0.0614x    frame=  439 fps=1.8 q=24.0 size=    8704KiB time=00:00:14.56 bitrate=4895.0kbits/s speed=0.0613x    frame=  442 fps=1.9 q=24.0 size=    8704KiB time=00:00:14.66 bitrate=4861.6kbits/s speed=0.0615x    frame=  442 fps=1.9 q=24.0 size=    8704KiB time=00:00:14.66 bitrate=4861.6kbits/s speed=0.0614x    frame=  444 fps=1.9 q=24.0 size=    8960KiB time=00:00:14.73 bitrate=4981.9kbits/s speed=0.0616x    frame=  444 fps=1.9 q=24.0 size=    8960KiB time=00:00:14.73 bitrate=4981.9kbits/s speed=0.0614x    frame=  444 fps=1.8 q=24.0 size=    8960KiB time=00:00:14.73 bitrate=4981.9kbits/s speed=0.0613x    frame=  447 fps=1.9 q=24.0 size=    8960KiB time=00:00:14.83 bitrate=4948.4kbits/s speed=0.0616x    frame=  447 fps=1.9 q=24.0 size=    8960KiB time=00:00:14.83 bitrate=4948.4kbits/s speed=0.0614x    frame=  449 fps=1.9 q=24.0 size=    8960KiB time=00:00:14.90 bitrate=4926.2kbits/s speed=0.0616x    frame=  449 fps=1.9 q=24.0 size=    8960KiB time=00:00:14.90 bitrate=4926.2kbits/s speed=0.0615x    frame=  452 fps=1.9 q=24.0 size=    8960KiB time=00:00:15.00 bitrate=4893.4kbits/s speed=0.0617x    frame=  452 fps=1.9 q=24.0 size=    8960KiB time=00:00:15.00 bitrate=4893.4kbits/s speed=0.0616x    frame=  452 fps=1.9 q=24.0 size=    8960KiB time=00:00:15.00 bitrate=4893.4kbits/s speed=0.0615x    frame=  454 fps=1.9 q=24.0 size=    8960KiB time=00:00:15.06 bitrate=4871.7kbits/s speed=0.0616x    frame=  454 fps=1.9 q=24.0 size=    8960KiB time=00:00:15.06 bitrate=4871.7kbits/s speed=0.0615x    frame=  457 fps=1.9 q=24.0 size=    9216KiB time=00:00:15.16 bitrate=4977.9kbits/s speed=0.0618x    frame=  457 fps=1.9 q=24.0 size=    9216KiB time=00:00:15.16 bitrate=4977.9kbits/s speed=0.0616x    frame=  457 fps=1.9 q=24.0 size=    9216KiB time=00:00:15.16 bitrate=4977.9kbits/s speed=0.0615x    frame=  459 fps=1.9 q=24.0 size=    9216KiB time=00:00:15.23 bitrate=4956.1kbits/s speed=0.0616x    frame=  459 fps=1.9 q=24.0 size=    9216KiB time=00:00:15.23 bitrate=4956.1kbits/s speed=0.0615x    frame=  462 fps=1.9 q=24.0 size=    9472KiB time=00:00:15.33 bitrate=5060.5kbits/s speed=0.0618x    frame=  462 fps=1.9 q=24.0 size=    9472KiB time=00:00:15.33 bitrate=5060.5kbits/s speed=0.0617x    frame=  464 fps=1.9 q=24.0 size=    9472KiB time=00:00:15.40 bitrate=5038.6kbits/s speed=0.0618x    frame=  464 fps=1.9 q=24.0 size=    9472KiB time=00:00:15.40 bitrate=5038.6kbits/s speed=0.0617x    frame=  464 fps=1.9 q=24.0 size=    9472KiB time=00:00:15.40 bitrate=5038.6kbits/s speed=0.0616x    frame=  467 fps=1.9 q=24.0 size=    9472KiB time=00:00:15.50 bitrate=5006.1kbits/s speed=0.0618x    frame=  467 fps=1.9 q=24.0 size=    9472KiB time=00:00:15.50 bitrate=5006.1kbits/s speed=0.0617x    frame=  469 fps=1.9 q=24.0 size=    9472KiB time=00:00:15.56 bitrate=4984.7kbits/s speed=0.0618x    frame=  469 fps=1.9 q=24.0 size=    9472KiB time=00:00:15.56 bitrate=4984.7kbits/s speed=0.0617x    frame=  472 fps=1.9 q=24.0 size=    9728KiB time=00:00:15.66 bitrate=5086.7kbits/s speed=0.062x    frame=  472 fps=1.9 q=24.0 size=    9728KiB time=00:00:15.66 bitrate=5086.7kbits/s speed=0.0619x    frame=  472 fps=1.9 q=24.0 size=    9728KiB time=00:00:15.66 bitrate=5086.7kbits/s speed=0.0617x    frame=  474 fps=1.9 q=24.0 size=    9728KiB time=00:00:15.73 bitrate=5065.2kbits/s speed=0.0619x    frame=  474 fps=1.9 q=24.0 size=    9728KiB time=00:00:15.73 bitrate=5065.2kbits/s speed=0.0617x    frame=  477 fps=1.9 q=24.0 size=    9728KiB time=00:00:15.83 bitrate=5033.2kbits/s speed=0.062x    frame=  477 fps=1.9 q=24.0 size=    9728KiB time=00:00:15.83 bitrate=5033.2kbits/s speed=0.0619x    frame=  479 fps=1.9 q=24.0 size=    9728KiB time=00:00:15.90 bitrate=5012.1kbits/s speed=0.062x    frame=  479 fps=1.9 q=24.0 size=    9728KiB time=00:00:15.90 bitrate=5012.1kbits/s speed=0.0619x    frame=  479 fps=1.9 q=24.0 size=    9728KiB time=00:00:15.90 bitrate=5012.1kbits/s speed=0.0618x    frame=  482 fps=1.9 q=24.0 size=    9984KiB time=00:00:16.00 bitrate=5111.8kbits/s speed=0.062x    frame=  482 fps=1.9 q=24.0 size=    9984KiB time=00:00:16.00 bitrate=5111.8kbits/s speed=0.0619x    frame=  484 fps=1.9 q=24.0 size=    9984KiB time=00:00:16.06 bitrate=5090.6kbits/s speed=0.062x    frame=  484 fps=1.9 q=24.0 size=    9984KiB time=00:00:16.06 bitrate=5090.6kbits/s speed=0.0619x    frame=  484 fps=1.9 q=24.0 size=    9984KiB time=00:00:16.06 bitrate=5090.6kbits/s speed=0.0618x    frame=  487 fps=1.9 q=24.0 size=    9984KiB time=00:00:16.16 bitrate=5059.1kbits/s speed=0.0621x    frame=  487 fps=1.9 q=24.0 size=    9984KiB time=00:00:16.16 bitrate=5059.1kbits/s speed=0.0619x    frame=  489 fps=1.9 q=24.0 size=    9984KiB time=00:00:16.23 bitrate=5038.4kbits/s speed=0.0621x    frame=  489 fps=1.9 q=24.0 size=    9984KiB time=00:00:16.23 bitrate=5038.4kbits/s speed=0.062x    frame=  492 fps=1.9 q=24.0 size=    9984KiB time=00:00:16.33 bitrate=5007.5kbits/s speed=0.0622x    frame=  492 fps=1.9 q=24.0 size=    9984KiB time=00:00:16.33 bitrate=5007.5kbits/s speed=0.0621x    frame=  492 fps=1.9 q=24.0 size=    9984KiB time=00:00:16.33 bitrate=5007.5kbits/s speed=0.062x    frame=  494 fps=1.9 q=24.0 size=    9984KiB time=00:00:16.40 bitrate=4987.2kbits/s speed=0.0621x    frame=  494 fps=1.9 q=24.0 size=    9984KiB time=00:00:16.40 bitrate=4987.2kbits/s speed=0.062x    frame=  497 fps=1.9 q=24.0 size=    9984KiB time=00:00:16.50 bitrate=4956.9kbits/s speed=0.0622x    frame=  497 fps=1.9 q=24.0 size=    9984KiB time=00:00:16.50 bitrate=4956.9kbits/s speed=0.0621x    frame=  499 fps=1.9 q=24.0 size=    9984KiB time=00:00:16.56 bitrate=4937.0kbits/s speed=0.0622x    frame=  499 fps=1.9 q=24.0 size=    9984KiB time=00:00:16.56 bitrate=4937.0kbits/s speed=0.0621x    frame=  499 fps=1.9 q=24.0 size=    9984KiB time=00:00:16.56 bitrate=4937.0kbits/s speed=0.062x    frame=  502 fps=1.9 q=24.0 size=   10240KiB time=00:00:16.66 bitrate=5033.2kbits/s speed=0.0623x    frame=  502 fps=1.9 q=24.0 size=   10240KiB time=00:00:16.66 bitrate=5033.2kbits/s speed=0.0621x    frame=  504 fps=1.9 q=24.0 size=   10240KiB time=00:00:16.73 bitrate=5013.1kbits/s speed=0.0623x    frame=  504 fps=1.9 q=24.0 size=   10240KiB time=00:00:16.73 bitrate=5013.1kbits/s speed=0.0621x    frame=  504 fps=1.9 q=24.0 size=   10240KiB time=00:00:16.73 bitrate=5013.1kbits/s speed=0.062x    frame=  507 fps=1.9 q=24.0 size=   10240KiB time=00:00:16.83 bitrate=4983.4kbits/s speed=0.0623x    frame=  507 fps=1.9 q=24.0 size=   10240KiB time=00:00:16.83 bitrate=4983.4kbits/s speed=0.0622x    frame=  509 fps=1.9 q=24.0 size=   10240KiB time=00:00:16.90 bitrate=4963.7kbits/s speed=0.0623x    frame=  509 fps=1.9 q=24.0 size=   10240KiB time=00:00:16.90 bitrate=4963.7kbits/s speed=0.0622x    frame=  509 fps=1.9 q=24.0 size=   10240KiB time=00:00:16.90 bitrate=4963.7kbits/s speed=0.062x    frame=  512 fps=1.9 q=24.0 size=   10240KiB time=00:00:17.00 bitrate=4934.5kbits/s speed=0.0623x    frame=  512 fps=1.9 q=24.0 size=   10240KiB time=00:00:17.00 bitrate=4934.5kbits/s speed=0.0622x    frame=  514 fps=1.9 q=24.0 size=   10240KiB time=00:00:17.06 bitrate=4915.2kbits/s speed=0.0623x    frame=  514 fps=1.9 q=24.0 size=   10240KiB time=00:00:17.06 bitrate=4915.2kbits/s speed=0.0622x    frame=  555 fps=2.0 q=24.0 size=   10240KiB time=00:00:18.43 bitrate=4550.8kbits/s speed=0.067x    [out#0/mp4 @ 0000025ff6d9fe00] video:10503KiB audio:0KiB subtitle:0KiB other streams:0KiB global headers:0KiB muxing overhead: 0.073861%
frame=  600 fps=2.2 q=-1.0 Lsize=   10511KiB time=00:00:19.93 bitrate=4319.7kbits/s speed=0.0725x    
[libx264 @ 0000025ff7660180] frame I:3     Avg QP: 6.99  size:195025
[libx264 @ 0000025ff7660180] frame P:166   Avg QP:16.11  size: 49926
[libx264 @ 0000025ff7660180] frame B:431   Avg QP:19.60  size:  4366
[libx264 @ 0000025ff7660180] consecutive B-frames:  2.2%  2.0% 12.5% 83.3%
[libx264 @ 0000025ff7660180] mb I  I16..4: 70.4% 14.2% 15.4%
[libx264 @ 0000025ff7660180] mb P  I16..4:  0.8%  1.1%  0.3%  P16..4: 12.9%  5.3%  3.5%  0.0%  0.0%    skip:76.0%
[libx264 @ 0000025ff7660180] mb B  I16..4:  0.1%  0.1%  0.0%  B16..8: 10.0%  1.4%  0.4%  direct: 0.9%  skip:87.2%  L0:40.9% L1:36.0% BI:23.1%
[libx264 @ 0000025ff7660180] 8x8 transform intra:35.1% inter:38.8%
[libx264 @ 0000025ff7660180] direct mvs  spatial:97.2% temporal:2.8%
[libx264 @ 0000025ff7660180] coded y,uvDC,uvAC intra: 44.5% 37.4% 18.9% inter: 5.7% 2.8% 0.2%
[libx264 @ 0000025ff7660180] i16 v,h,dc,p: 72%  8% 13%  6%
[libx264 @ 0000025ff7660180] i8 v,h,dc,ddl,ddr,vr,hd,vl,hu: 17% 12% 29%  6%  7%  6%  8%  6%  9%
[libx264 @ 0000025ff7660180] i4 v,h,dc,ddl,ddr,vr,hd,vl,hu: 25% 12% 17%  7%  8%  7%  8%  7%  9%
[libx264 @ 0000025ff7660180] i8c dc,h,v,p: 58% 17% 21%  4%
[libx264 @ 0000025ff7660180] Weighted P-Frames: Y:0.0% UV:0.0%
[libx264 @ 0000025ff7660180] ref P L0: 71.0% 12.2% 11.7%  3.0%  2.1%  0.0%
[libx264 @ 0000025ff7660180] ref B L0: 84.2% 12.4%  2.9%  0.6%
[libx264 @ 0000025ff7660180] ref B L1: 95.5%  4.5%
[libx264 @ 0000025ff7660180] kb/s:4301.87
